<svg xmlns="http://www.w3.org/2000/svg" xmlns:xlink="http://www.w3.org/1999/xlink" width="215" height="215" version="1.1" viewBox="0 0 215 215"><title>portal-logo</title><desc>Created with Sketch.</desc><defs><path id="path-1" d="M51.165,8.742 C54.505,12.619 56.876,17.365 57.892,22.588 C60.148,17.225 65.452,13.46 71.636,13.46 C79.867,13.46 86.541,20.134 86.541,28.365 C86.541,36.597 79.867,43.269 71.636,43.269 C63.404,43.269 56.728,36.597 56.728,28.365 C56.728,12.7 44.03,0 28.365,0 C12.7,0 0,12.7 0,28.365 C0,44.031 12.7,56.731 28.365,56.731 C36.419,56.731 43.695,53.393 48.858,48.003 C45.501,44.117 43.128,39.383 42.108,34.14 C39.852,39.504 34.548,43.269 28.365,43.269 C20.133,43.269 13.46,36.597 13.46,28.365 C13.46,20.134 20.133,13.46 28.365,13.46 C36.966,13.46 43.27,20.577 43.27,28.365 C43.27,44.031 55.97,56.731 71.636,56.731 C87.3,56.731 100,44.031 100,28.365 C100,12.7 87.3,0 71.636,0 C63.589,0 56.327,3.358 51.165,8.742 Z"/></defs><g id="Page-1" fill="none" fill-rule="evenodd" stroke="none" stroke-width="1"><g id="portal-logo"><circle id="Oval" cx="107.5" cy="107.5" r="107.5" fill="#09B6CA" fill-rule="nonzero"/><g id="logo" transform="translate(58.000000, 79.000000)"><mask id="mask-2" fill="#fff"><use xlink:href="#path-1"/></mask><polygon id="Fill-1" fill="#FFFFFE" points="-5 61.73 105 61.73 105 -5 -5 -5" mask="url(#mask-2)"/></g></g></g></svg>